<?xml version="1.0" standalone="no"?><!DOCTYPE svg PUBLIC "-//W3C//DTD SVG 1.1//EN" "http://www.w3.org/Graphics/SVG/1.1/DTD/svg11.dtd"><svg t="1622519378985" class="icon" viewBox="0 0 1024 1024" version="1.1" xmlns="http://www.w3.org/2000/svg" p-id="1059" width="128" height="128" data-spm-anchor-id="a313x.7781069.0.i7" xmlns:xlink="http://www.w3.org/1999/xlink"><defs><style type="text/css"></style></defs><path d="M992 320H896V192c0-19.2-12.8-32-32-32h-704c-19.2 0-32 12.8-32 32v128H32c-19.2 0-32 12.8-32 32v320c0 19.2 12.8 32 32 32H128v128c0 19.2 12.8 32 32 32h704c19.2 0 32-12.8 32-32v-128h96c19.2 0 32-12.8 32-32v-320c0-19.2-12.8-32-32-32zM64 640V384h64v256H64z m768 160H192v-576h640v576z m128-160h-64V384h64v256z" p-id="1060"></path><path d="M332.8 364.8m-76.8 0a76.8 76.8 0 1 0 153.6 0 76.8 76.8 0 1 0-153.6 0Z" p-id="1061"></path><path d="M768 480l-96-128-160 256-128-128-128 256h512z" p-id="1062" data-spm-anchor-id="a313x.7781069.0.i5"></path></svg>