<?xml version="1.0" standalone="no"?><!DOCTYPE svg PUBLIC "-//W3C//DTD SVG 1.1//EN" "http://www.w3.org/Graphics/SVG/1.1/DTD/svg11.dtd"><svg t="1622538321028" class="icon" viewBox="0 0 1024 1024" version="1.1" xmlns="http://www.w3.org/2000/svg" p-id="2363" width="128" height="128" xmlns:xlink="http://www.w3.org/1999/xlink"><defs><style type="text/css"></style></defs><path d="M874.185844 1024H149.814156A149.949124 149.949124 0 0 1 0 874.185844V149.814156A149.949124 149.949124 0 0 1 149.814156 0h724.371688a149.949124 149.949124 0 0 1 149.814156 149.814156v724.371688a149.949124 149.949124 0 0 1-149.814156 149.814156zM149.814156 29.827863a120.12126 120.12126 0 0 0-119.986293 119.986293v724.371688a120.12126 120.12126 0 0 0 119.986293 119.986293h724.371688a120.12126 120.12126 0 0 0 119.986293-119.986293V149.814156a120.12126 120.12126 0 0 0-119.986293-119.986293z" fill="#333333" p-id="2364"></path><path d="M796.309477 823.303018H227.825491a55.471728 55.471728 0 0 1-55.33676-55.33676V256.438645a55.471728 55.471728 0 0 1 55.33676-55.33676H796.309477a55.471728 55.471728 0 0 1 55.33676 55.33676v511.12271A55.471728 55.471728 0 0 1 796.309477 823.303018zM227.825491 230.794781A25.778832 25.778832 0 0 0 202.451562 256.438645v511.12271a25.778832 25.778832 0 0 0 25.643864 25.643864H796.309477a25.778832 25.778832 0 0 0 25.643864-25.643864V256.438645a25.778832 25.778832 0 0 0-25.643864-25.643864z" fill="#333333" p-id="2365"></path><path d="M851.511269 343.762752H172.893634v-97.311717a46.563859 46.563859 0 0 1 46.563859-46.56386h585.489917a46.563859 46.563859 0 0 1 46.563859 46.428892zM202.451562 314.069856h619.366812v-67.483854A16.870963 16.870963 0 0 0 804.94741 229.445103H219.457493A16.870963 16.870963 0 0 0 202.451562 246.451035z" fill="#333333" p-id="2366"></path></svg>