<?xml version="1.0" standalone="no"?><!DOCTYPE svg PUBLIC "-//W3C//DTD SVG 1.1//EN" "http://www.w3.org/Graphics/SVG/1.1/DTD/svg11.dtd"><svg t="1622526186342" class="icon" viewBox="0 0 1024 1024" version="1.1" xmlns="http://www.w3.org/2000/svg" p-id="2095" xmlns:xlink="http://www.w3.org/1999/xlink" width="128" height="128"><defs><style type="text/css"></style></defs><path d="M981.333333 170.666667a42.666667 42.666667 0 0 1 42.666667 42.666666v597.333334a42.666667 42.666667 0 0 1-42.666667 42.666666H42.666667a42.666667 42.666667 0 0 1-42.666667-42.666666V213.333333a42.666667 42.666667 0 0 1 42.666667-42.666666h938.666666z m-21.333333 64h-896v554.666666h896v-554.666666zM320 597.333333a21.333333 21.333333 0 0 1 21.333333 21.333334v42.666666a21.333333 21.333333 0 0 1-21.333333 21.333334h-128a21.333333 21.333333 0 0 1-21.333333-21.333334v-42.666666a21.333333 21.333333 0 0 1 21.333333-21.333334h128z m256 0a21.333333 21.333333 0 0 1 21.333333 21.333334v42.666666a21.333333 21.333333 0 0 1-21.333333 21.333334h-128a21.333333 21.333333 0 0 1-21.333333-21.333334v-42.666666a21.333333 21.333333 0 0 1 21.333333-21.333334h128z m256 0a21.333333 21.333333 0 0 1 21.333333 21.333334v42.666666a21.333333 21.333333 0 0 1-21.333333 21.333334h-128a21.333333 21.333333 0 0 1-21.333333-21.333334v-42.666666a21.333333 21.333333 0 0 1 21.333333-21.333334h128z m-512-256a21.333333 21.333333 0 0 1 21.333333 21.333334v128a21.333333 21.333333 0 0 1-21.333333 21.333333h-128a21.333333 21.333333 0 0 1-21.333333-21.333333v-128a21.333333 21.333333 0 0 1 21.333333-21.333334h128z m256 0a21.333333 21.333333 0 0 1 21.333333 21.333334v128a21.333333 21.333333 0 0 1-21.333333 21.333333h-128a21.333333 21.333333 0 0 1-21.333333-21.333333v-128a21.333333 21.333333 0 0 1 21.333333-21.333334h128z m256 0a21.333333 21.333333 0 0 1 21.333333 21.333334v128a21.333333 21.333333 0 0 1-21.333333 21.333333h-128a21.333333 21.333333 0 0 1-21.333333-21.333333v-128a21.333333 21.333333 0 0 1 21.333333-21.333334h128z" p-id="2096"></path></svg>