<?xml version="1.0" standalone="no"?><!DOCTYPE svg PUBLIC "-//W3C//DTD SVG 1.1//EN" "http://www.w3.org/Graphics/SVG/1.1/DTD/svg11.dtd"><svg t="1622526217723" class="icon" viewBox="0 0 1182 1024" version="1.1" xmlns="http://www.w3.org/2000/svg" p-id="2919" xmlns:xlink="http://www.w3.org/1999/xlink" width="147.75" height="128"><defs><style type="text/css"></style></defs><path d="M688.512 4.672a39.296 39.296 0 0 0-40.384 1.984l-463.04 308.48H0v393.856h185.152l463.04 308.352a39.808 39.808 0 0 0 21.888 6.4 39.04 39.04 0 0 0 18.624-4.736 39.424 39.424 0 0 0 20.864-34.688V39.36a39.808 39.808 0 0 0-21.056-34.688zM78.72 393.92h78.784v236.352h-78.72z m551.808 517.12l-394.176-262.4V375.744l394.176-262.4z m377.024-726.272a39.36 39.36 0 1 0-43.968 65.344 314.944 314.944 0 0 1 0.768 523.072 39.424 39.424 0 0 0 44.224 65.216 393.664 393.664 0 0 0-1.024-653.568z" p-id="2920"></path><path d="M883.2 309.184a39.36 39.36 0 0 0-43.968 65.344 165.248 165.248 0 0 1 0.384 274.496 39.424 39.424 0 0 0 44.224 65.344 243.968 243.968 0 0 0-0.64-405.12z" p-id="2921"></path></svg>