<?xml version="1.0" standalone="no"?><!DOCTYPE svg PUBLIC "-//W3C//DTD SVG 1.1//EN" "http://www.w3.org/Graphics/SVG/1.1/DTD/svg11.dtd"><svg t="1622526476848" class="icon" viewBox="0 0 1024 1024" version="1.1" xmlns="http://www.w3.org/2000/svg" p-id="15411" width="128" height="128" xmlns:xlink="http://www.w3.org/1999/xlink"><defs><style type="text/css"></style></defs><path d="M516.01976889 805.81063111c4.96867555 0 10.02496-0.30264889 15.11651556-0.90794666 48.79928889-5.85500445 90.23601778-39.96330667 105.53344-86.96832a7.21237333 7.21237333 0 0 0-3.87982223-8.83143112c-3.33141333-1.54965333-7.36256-0.20935111-9.23875555 2.94229334-0.18090667 0.30264889-19.56750222 31.61998222-95.05336889 41.81447111a247.52241778 247.52241778 0 0 1-32.71566223 2.30741333c-52.8896-0.02958222-76.45297778-19.96458667-76.66801777-20.15004444a7.24764445 7.24764445 0 0 0-10.96362667 9.25582222c23.02179555 37.32366222 64.33564445 60.53774222 107.86929778 60.53774222z m405.86808889-467.80416c-0.66901333 0-1.26976 0.12174222-1.91032889 0.12174222-44.22656-191.47548445-213.22183111-334.30869333-415.83502222-334.30869333-208.19057778 0-381.05884445 150.72711111-419.3792 350.11925333-37.25880889 6.70492445-65.61109333 39.45016889-65.61109334 79.05052445v158.49244444c0 44.42453333 35.62154667 80.44316445 79.60348445 80.44316445 24.81152 0 46.70919111-11.71456 61.27843555-29.70965334 35.19715555 93.09639111 106.86122667 168.16924445 197.55235556 207.7696 0.21504-0.47104 1.93308445-3.80928 3.99473778-6.46599111 1.4336-1.84661333 3.02990222-3.36099555 4.39864888-3.36099555 1.42222222 0 2.72611555 0.51882667 3.8456889 1.30503111-20.99541333-15.62965333-96.81351111-95.95107555-113.2293689-208.04949333-7.21237333-49.34087111 29.74492445-97.77379555 72.78819556-105.78375112 69.09610667-12.86826667 137.82357333-27.52512 206.91968-40.14876444 43.92277333-8.00995555 73.94190222-32.10353778 92.29653334-72.22385778 4.3008-9.37870222 10.50965333-28.34090667 13.35864888-55.68512 0.75776-4.06641778 4.08917333-7.19416889 8.35925334-7.19416889 2.84899555 0 5.27246222 1.45635555 6.87445333 3.54759111l1.91146667-1.18328888c27.23271111 39.53777778 81.24074667 127.08864 88.99356444 219.39768888 8.90766222 105.54026667 3.93898667 177.82101333-76.84892444 251.77429334a3.43153778 3.43153778 0 0 1-0.33109334 0.30378666 6.62983111 6.62983111 0 0 0-1.78858666 4.52039112c0 2.27783111 1.21173333 4.21774222 2.97073778 5.39989333 0.66446222 0.27306667 1.33347555 0.63488 1.99793777 0.90908444 0.54727111 0.12174222 1.06040889 0.30264889 1.60768 0.30264889s1.03082667-0.18090667 1.51438223-0.30264889c1.15370667-0.60643555 2.24369778-1.30503111 3.36213333-1.91146667A369.41937778 369.41937778 0 0 0 853.90563555 624.57173333a81.69585778 81.69585778 0 0 0 51.40366223 34.31765334C871.10769778 814.4384 732.37617778 911.78666667 560.50801778 926.56071111c-10.29916445-25.55107555-35.65112889-43.69635555-65.43132445-43.69635556-38.88924445 0-70.42844445 30.79850667-70.42844444 68.76273778s31.53237333 68.73315555 70.42844444 68.73315556c31.35260445 0 57.61365333-20.15004445 66.73066667-47.8208 198.94954667-16.17578667 358.43185778-134.42616889 391.72551111-318.16590222 29.41155555-12.29141333 50.06904889-41.15114667 50.06904889-74.83392V419.16643555c0.01137778-44.80341333-36.58410667-81.15996445-81.71406222-81.15996444z m-73.39349333 46.06748444C796.60714667 243.51744 662.14456889 143.10513778 503.96728889 143.10513778c-157.51395555 0-291.49297778 99.56238222-343.86375111 239.20981333-2.60323555-3.18691555-5.66158222-5.91872-8.66190223-8.68124444 29.65731555-170.17742222 176.11434667-299.56551111 352.71111112-299.56551112 175.74798222 0 321.74990222 128.11832889 352.37432888 297.10791112-3.03445333 4.06641778-5.82542222 8.31260445-8.0327111 12.89784888zM357.59672889 849.99054222l-0.01137778-0.00568889c-0.03413333 0.07623111-0.03413333 0.08760889 0.01137778 0.00568889z" fill="" p-id="15412"></path></svg>