<?xml version="1.0" standalone="no"?><!DOCTYPE svg PUBLIC "-//W3C//DTD SVG 1.1//EN" "http://www.w3.org/Graphics/SVG/1.1/DTD/svg11.dtd"><svg t="1622538338484" class="icon" viewBox="0 0 1462 1024" version="1.1" xmlns="http://www.w3.org/2000/svg" p-id="2709" width="182.75" height="128" xmlns:xlink="http://www.w3.org/1999/xlink"><defs><style type="text/css"></style></defs><path d="M0 146.285714v43.885715h277.942857v468.114285H0v87.771429h321.828571V102.4H0v43.885714zM409.6 424.228571v321.828572h643.657143V102.4H409.6v321.828571z m599.771429 0v234.057143H468.114286V190.171429h541.257143v234.057142z" fill="" p-id="2710"></path><path d="M497.371429 424.228571v190.171429h468.114285V234.057143H497.371429v190.171428z m437.394285-133.12c19.017143 35.108571-11.702857 80.457143-49.737143 73.142858-40.96-8.777143-61.44-49.737143-38.034285-77.531429 26.331429-32.182857 70.217143-29.257143 87.771428 4.388571z m-226.742857 96.548572c32.182857 43.885714 59.977143 80.457143 62.902857 80.457143 2.925714 0 20.48-10.24 39.497143-21.942857 32.182857-21.942857 35.108571-20.48 78.994286 52.662857 26.331429 39.497143 46.811429 76.068571 46.811428 80.457143 0 2.925714-89.234286 5.851429-197.485714 5.851428-114.102857 0-197.485714-5.851429-197.485714-13.165714 0-26.331429 90.697143-264.777143 99.474286-264.777143 5.851429 0 36.571429 36.571429 67.291428 80.457143zM1141.028571 424.228571v321.828572h321.828572v-87.771429H1199.542857V190.171429h263.314286V102.4H1141.028571v321.828571zM0 326.217143c0 54.125714 8.777143 103.862857 19.017143 118.491428 19.017143 26.331429 21.942857 26.331429 57.051428 2.925715 36.571429-23.405714 36.571429-23.405714 81.92 51.2 26.331429 39.497143 46.811429 76.068571 46.811429 80.457143 0 2.925714-45.348571 5.851429-102.4 5.851428-58.514286 0-102.4 5.851429-102.4 14.628572s48.274286 14.628571 117.028571 14.628571h117.028572V234.057143H0v92.16z m203.337143-35.108572c19.017143 35.108571-11.702857 80.457143-49.737143 73.142858-40.96-8.777143-61.44-49.737143-38.034286-77.531429 26.331429-32.182857 70.217143-29.257143 87.771429 4.388571z" fill="" p-id="2711"></path><path d="M1228.8 424.228571v190.171429h117.028571c68.754286 0 117.028571-5.851429 117.028572-14.628571s-40.96-14.628571-95.085714-14.628572c-52.662857 0-95.085714-5.851429-95.085715-13.165714 0-32.182857 92.16-264.777143 103.862857-264.777143 7.314286 0 13.165714 4.388571 13.165715 10.24 1.462857 7.314286 17.554286 30.72 36.571428 55.588571l36.571429 43.885715V234.057143H1228.8v190.171428zM0 877.714286c0 27.794286 10.24 29.257143 160.914286 29.257143s160.914286-1.462857 160.914285-29.257143-10.24-29.257143-160.914285-29.257143-160.914286 1.462857-160.914286 29.257143zM409.6 877.714286c0 27.794286 10.24 29.257143 321.828571 29.257143s321.828571-1.462857 321.828572-29.257143-10.24-29.257143-321.828572-29.257143-321.828571 1.462857-321.828571 29.257143zM1141.028571 877.714286c0 27.794286 10.24 29.257143 160.914286 29.257143s160.914286-1.462857 160.914286-29.257143-10.24-29.257143-160.914286-29.257143-160.914286 1.462857-160.914286 29.257143z" fill="" p-id="2712"></path></svg>