<?xml version="1.0" standalone="no"?><!DOCTYPE svg PUBLIC "-//W3C//DTD SVG 1.1//EN" "http://www.w3.org/Graphics/SVG/1.1/DTD/svg11.dtd"><svg t="1622541988516" class="icon" viewBox="0 0 1024 1024" version="1.1" xmlns="http://www.w3.org/2000/svg" p-id="5089" width="128" height="128" xmlns:xlink="http://www.w3.org/1999/xlink"><defs><style type="text/css"></style></defs><path d="M 69.8182 69.8182 v 744.727 c 0 76.8 62.8364 139.636 139.636 139.636 h 605.091 c 76.8 0 139.636 -62.8364 139.636 -139.636 V 69.8182 H 69.8182 Z m 46.5455 46.5455 h 791.273 v 107.055 H 116.364 V 116.364 Z m 791.273 698.182 c 0 51.2 -41.8909 93.0909 -93.0909 93.0909 H 209.455 c -51.2 0 -93.0909 -41.8909 -93.0909 -93.0909 V 269.964 h 791.273 V 814.545 Z" fill="" p-id="5090"></path><path d="M 512 747.055 c 111.709 0 200.145 -90.7636 200.145 -200.145 V 418.909 c 0 -13.9636 -9.30909 -23.2727 -23.2727 -23.2727 s -23.2727 9.30909 -23.2727 23.2727 v 128 c 0 86.1091 -69.8182 153.6 -153.6 153.6 s -153.6 -69.8182 -153.6 -153.6 V 418.909 c 0 -13.9636 -9.30909 -23.2727 -23.2727 -23.2727 s -23.2727 9.30909 -23.2727 23.2727 v 128 c 0 109.382 88.4364 200.145 200.145 200.145 Z" fill="" p-id="5091"></path></svg>